<svg height="512" viewBox="0 0 58 58" width="512" xmlns="http://www.w3.org/2000/svg"><g id="Page-1" fill="none" fill-rule="evenodd"><g id="014---Connections" fill-rule="nonzero"><path id="Shape" d="m56 15 .0000832 35h-54.0001664l.0000832-35c-.00324507-.4863918.08846931-.9687416.27-1.42l13.15-2.58h27.16l13.15 2.58c.1815307.4512584.2732451.9336082.27 1.42z" fill="#b0d3f0"/><path id="Shape" d="m56 15 .0000832 35h-45.5800832c13.28-4.09 31.88-14.4 19.23-39h12.93l13.15 2.58c.1815307.4512584.2732451.9336082.27 1.42z" fill="#90bae1"/><path id="Shape" d="m52 58h-46c-3.3137085 0-6-2.6862915-6-6v-3c0-.5522847.44771525-1 1-1h56c.5522847 0 1 .4477153 1 1v3c0 3.3137085-2.6862915 6-6 6z" fill="#3b97d3"/><path id="Shape" d="m19 48h20v2c0 1.6568542-1.3431458 3-3 3h-14c-1.6568542 0-3-1.3431458-3-3z" fill="#2980ba"/><path id="Shape" d="m14 53h-3c-.5522847 0-1-.4477153-1-1s.4477153-1 1-1h3c.5522847 0 1 .4477153 1 1s-.4477153 1-1 1z" fill="#2980ba"/><circle id="Oval" cx="5" cy="52" fill="#65ddb9" r="1"/><circle id="Oval" cx="8" cy="52" fill="#f0c419" r="1"/><circle id="Oval" cx="8" cy="8" fill="#3d324c" r="8"/><circle id="Oval" cx="29" cy="8" fill="#3d324c" r="8"/><circle id="Oval" cx="50" cy="8" fill="#3d324c" r="8"/><circle id="Oval" cx="8" cy="7" fill="#fdd7ad" r="3"/><circle id="Oval" cx="29" cy="7" fill="#fdd7ad" r="3"/><circle id="Oval" cx="50" cy="7" fill="#fdd7ad" r="3"/><path id="Rectangle-path" d="m14.607 11.035h2v17.691h-2z" fill="#f29c1f" transform="matrix(.671 -.741 .741 .671 -9.605 18.105)"/><path id="Rectangle-path" d="m33.729 19.355h16.279v2h-16.279z" fill="#f29c1f" transform="matrix(.741 -.671 .671 .741 -2.828 33.377)"/><path id="Rectangle-path" d="m28 15h2v8h-2z" fill="#f29c1f"/><g fill="#2980ba"><path id="Shape" d="m8 40h-1c-.55228475 0-1-.4477153-1-1s.44771525-1 1-1h1c.55228475 0 1 .4477153 1 1s-.44771525 1-1 1z"/><path id="Shape" d="m14 40h-2c-.5522847 0-1-.4477153-1-1s.4477153-1 1-1h2c.5522847 0 1 .4477153 1 1s-.4477153 1-1 1z"/><path id="Shape" d="m14 44h-7c-.55228475 0-1-.4477153-1-1s.44771525-1 1-1h7c.5522847 0 1 .4477153 1 1s-.4477153 1-1 1z"/><path id="Shape" d="m45 40h-1c-.5522847 0-1-.4477153-1-1s.4477153-1 1-1h1c.5522847 0 1 .4477153 1 1s-.4477153 1-1 1z"/><path id="Shape" d="m51 40h-2c-.5522847 0-1-.4477153-1-1s.4477153-1 1-1h2c.5522847 0 1 .4477153 1 1s-.4477153 1-1 1z"/><path id="Shape" d="m51 44h-7c-.5522847 0-1-.4477153-1-1s.4477153-1 1-1h7c.5522847 0 1 .4477153 1 1s-.4477153 1-1 1z"/></g><path id="Shape" d="m13 14c.0016622.0834583-.0016771.1669411-.01.25-2.9174738 2.3334509-7.06252619 2.3334509-9.98 0-.00832285-.0830589-.01166217-.1665417-.01-.25.00573152-2.0436845 1.24647141-3.881086 3.14-4.65h.01c1.08112167.8665511 2.61887833.8665511 3.7 0h.01c1.8935286.768914 3.1342685 2.6063155 3.14 4.65z" fill="#955ba5"/><path id="Shape" d="m34 14c.0016622.0834583-.0016771.1669411-.01.25-2.9174738 2.3334509-7.0625262 2.3334509-9.98 0-.0083229-.0830589-.0116622-.1665417-.01-.25.0057315-2.0436845 1.2464714-3.881086 3.14-4.65h.01c1.0811217.8665511 2.6188783.8665511 3.7 0h.01c1.8935286.768914 3.1342685 2.6063155 3.14 4.65z" fill="#955ba5"/><path id="Shape" d="m55 14c.0016622.0834583-.0016771.1669411-.01.25-2.9174738 2.3334509-7.0625262 2.3334509-9.98 0-.0083229-.0830589-.0116622-.1665417-.01-.25.0057315-2.0436845 1.2464714-3.881086 3.14-4.65h.01c1.0811217.8665511 2.6188783.8665511 3.7 0h.01c1.8935286.768914 3.1342685 2.6063155 3.14 4.65z" fill="#955ba5"/><circle id="Oval" cx="29" cy="33" fill="#3d324c" r="11"/><circle id="Oval" cx="29" cy="31" fill="#fdd7ad" r="5"/><path id="Shape" d="m36 41c-.0000253.1704402-.0100425.3407323-.03.51-4.0536114 3.3200783-9.8863886 3.3200783-13.94 0-.0199575-.1692677-.0299747-.3395598-.03-.51-.0030066-2.6039931 1.4423199-4.9935997 3.75-6.2 1.8711201 1.6004386 4.6288799 1.6004386 6.5 0 2.3076801 1.2064003 3.7530066 3.5960069 3.75 6.2z" fill="#955ba5"/></g></g></svg>