<?xml version="1.0" encoding="iso-8859-1"?>
<!-- Generator: Adobe Illustrator 21.0.0, SVG Export Plug-In . SVG Version: 6.00 Build 0)  -->
<svg xmlns="http://www.w3.org/2000/svg" xmlns:xlink="http://www.w3.org/1999/xlink" version="1.1" id="Capa_1" x="0px" y="0px" viewBox="0 0 688.449 688.449" style="enable-background:new 0 0 688.449 688.449;" xml:space="preserve" width="512" height="512">
<g>
	<path style="fill:#857E87;" d="M25.435,227.474c0-2.75,2.25-5,5-5h144.287c2.75,0,5,2.25,5,5l6.175,181.083l-6.175,179.184H25.435   V227.474z"/>
	<path style="fill:#5D5360;" d="M174.722,222.474h-40c2.75,0,5,2.25,5,5v360.268h40V227.474   C179.722,224.724,177.472,222.474,174.722,222.474z"/>
	<path style="fill:#857E87;" d="M404.622,200.474v-64.567c0-4.142,3.357-7.5,7.5-7.5c4.142,0,7.5,3.358,7.5,7.5v64.567H404.622z"/>
	<path style="fill:#857E87;" d="M434.34,239.474h-44.436v-35.723c0-2.75,2.25-5,5-5h34.436c2.75,0,5,2.25,5,5V239.474z"/>
	<path style="fill:#DBEAFF;" d="M456.355,278.474h-88.999v-35.366c0-2.75,2.25-5,5-5h78.999c2.75,0,5,2.25,5,5V278.474z"/>
	<path style="fill:#C3DDFF;" d="M451.355,238.109h-30c2.75,0,5,2.25,5,5v35.366h30v-35.366   C456.355,240.359,454.105,238.109,451.355,238.109z"/>
	<path style="fill:#F0EEF0;" d="M489,588.972H334.232L330,430.474l4.227-148.801c0-2.75,2.25-5,5-5H484c2.75,0,5,2.25,5,5V588.972z"/>
	<path style="fill:#DFDDE0;" d="M484,276.674h-40c2.75,0,5,2.25,5,5v307.298h40V281.674C489,278.924,486.75,276.674,484,276.674z"/>
	<path style="fill:#DBEAFF;" d="M334.232,588.972h-154.5l-0.009-453.887c0-2.75,2.25-5,5-5h144.501c2.75,0,5,2.25,5,5   L334.232,588.972z"/>
	<path style="fill:#C3DDFF;" d="M334.225,135.085c0-2.75-2.25-5-5-5h-40c2.75,0,5,2.25,5,5l0.008,453.887h40L334.225,135.085z"/>
	<path style="fill:#857E87;" d="M301.739,132.474h-89.53v-35.5c0-2.75,2.25-5,5-5h79.53c2.75,0,5,2.25,5,5V132.474z"/>
	<path style="fill:#8BB3EA;" d="M334.188,177.456H179.709v-42.372c0-2.75,2.25-5,5-5h144.479c2.75,0,5,2.25,5,5V177.456z"/>
	<path style="fill:#739AD6;" d="M329.188,130.085h-40c2.75,0,5,2.25,5,5v42.372h40v-42.372   C334.188,132.335,331.938,130.085,329.188,130.085z"/>
	<path style="fill:#857E87;" d="M386.215,588.933v-78.954c0-2.75,2.25-5,5-5h41.281c2.75,0,5,2.25,5,5v78.954H386.215z"/>
	<path style="fill:#C3DDFF;" d="M88.595,412.938c0,2.75-2.25,5-5,5H62.852c-2.75,0-5-2.25-5-5V268.145c0-2.75,2.25-5,5-5h20.743   c2.75,0,5,2.25,5,5V412.938z"/>
	<path style="fill:#C3DDFF;" d="M149.352,544.475c0,2.75-2.25,5-5,5h-20.954c-2.75,0-5-2.25-5-5V399.683c0-2.75,2.25-5,5-5h20.954   c2.75,0,5,2.25,5,5V544.475z"/>
	<path style="fill:#C3DDFF;" d="M149.352,350.554c0,2.75-2.25,5-5,5h-20.954c-2.75,0-5-2.25-5-5v-20.07c0-2.75,2.25-5,5-5h20.954   c2.75,0,5,2.25,5,5V350.554z"/>
	<path style="fill:#C3DDFF;" d="M88.595,482.119c0,2.75-2.25,5-5,5H62.852c-2.75,0-5-2.25-5-5v-19.973c0-2.75,2.25-5,5-5h20.743   c2.75,0,5,2.25,5,5V482.119z"/>
	<path style="fill:#B3E59F;" d="M504.5,596.474H7.5c-4.143,0-7.5-3.358-7.5-7.5s3.357-7.5,7.5-7.5h497c4.143,0,7.5,3.358,7.5,7.5   S508.643,596.474,504.5,596.474z"/>
	<g>
		<path style="fill:#8BB3EA;" d="M300.339,245.974h-86.729c-4.143,0-7.5-3.358-7.5-7.5s3.357-7.5,7.5-7.5h86.729    c4.143,0,7.5,3.358,7.5,7.5S304.481,245.974,300.339,245.974z"/>
	</g>
	<g>
		<path style="fill:#8BB3EA;" d="M300.339,318.907h-86.729c-4.143,0-7.5-3.358-7.5-7.5s3.357-7.5,7.5-7.5h86.729    c4.143,0,7.5,3.358,7.5,7.5S304.481,318.907,300.339,318.907z"/>
	</g>
	<g>
		<path style="fill:#8BB3EA;" d="M300.339,391.744h-86.729c-4.143,0-7.5-3.358-7.5-7.5s3.357-7.5,7.5-7.5h86.729    c4.143,0,7.5,3.358,7.5,7.5S304.481,391.744,300.339,391.744z"/>
	</g>
	<g>
		<path style="fill:#8BB3EA;" d="M300.339,464.575h-86.729c-4.143,0-7.5-3.358-7.5-7.5s3.357-7.5,7.5-7.5h86.729    c4.143,0,7.5,3.358,7.5,7.5S304.481,464.575,300.339,464.575z"/>
	</g>
	<g>
		<path style="fill:#8BB3EA;" d="M300.339,537.407h-86.729c-4.143,0-7.5-3.358-7.5-7.5s3.357-7.5,7.5-7.5h86.729    c4.143,0,7.5,3.358,7.5,7.5S304.481,537.407,300.339,537.407z"/>
	</g>
	<g>
		<g>
			<path style="fill:#FFFFFF;" d="M372.855,351.976c-4.143,0-7.5-3.358-7.5-7.5v-25.002c0-4.142,3.357-7.5,7.5-7.5     s7.5,3.358,7.5,7.5v25.002C380.355,348.619,376.998,351.976,372.855,351.976z"/>
		</g>
		<g>
			<path style="fill:#FFFFFF;" d="M411.855,351.976c-4.143,0-7.5-3.358-7.5-7.5v-25.002c0-4.142,3.357-7.5,7.5-7.5     s7.5,3.358,7.5,7.5v25.002C419.355,348.619,415.998,351.976,411.855,351.976z"/>
		</g>
		<g>
			<path style="fill:#FFFFFF;" d="M372.855,411.867c-4.143,0-7.5-3.358-7.5-7.5v-24.953c0-4.142,3.357-7.5,7.5-7.5     s7.5,3.358,7.5,7.5v24.953C380.355,408.509,376.998,411.867,372.855,411.867z"/>
		</g>
		<g>
			<path style="fill:#FFFFFF;" d="M411.855,411.867c-4.143,0-7.5-3.358-7.5-7.5v-24.953c0-4.142,3.357-7.5,7.5-7.5     s7.5,3.358,7.5,7.5v24.953C419.355,408.509,415.998,411.867,411.855,411.867z"/>
		</g>
		<g>
			<path style="fill:#FFFFFF;" d="M372.855,471.785c-4.143,0-7.5-3.358-7.5-7.5V439.31c0-4.142,3.357-7.5,7.5-7.5s7.5,3.358,7.5,7.5     v24.975C380.355,468.427,376.998,471.785,372.855,471.785z"/>
		</g>
		<g>
			<path style="fill:#FFFFFF;" d="M411.855,471.785c-4.143,0-7.5-3.358-7.5-7.5V439.31c0-4.142,3.357-7.5,7.5-7.5s7.5,3.358,7.5,7.5     v24.975C419.355,468.427,415.998,471.785,411.855,471.785z"/>
		</g>
		<g>
			<path style="fill:#FFFFFF;" d="M450.855,351.976c-4.143,0-7.5-3.358-7.5-7.5v-25.002c0-4.142,3.357-7.5,7.5-7.5     s7.5,3.358,7.5,7.5v25.002C458.355,348.619,454.998,351.976,450.855,351.976z"/>
		</g>
		<g>
			<path style="fill:#FFFFFF;" d="M450.855,411.867c-4.143,0-7.5-3.358-7.5-7.5v-24.953c0-4.142,3.357-7.5,7.5-7.5     s7.5,3.358,7.5,7.5v24.953C458.355,408.509,454.998,411.867,450.855,411.867z"/>
		</g>
		<g>
			<path style="fill:#FFFFFF;" d="M450.855,471.785c-4.143,0-7.5-3.358-7.5-7.5V439.31c0-4.142,3.357-7.5,7.5-7.5s7.5,3.358,7.5,7.5     v24.975C458.355,468.427,454.998,471.785,450.855,471.785z"/>
		</g>
	</g>
</g>
<g>
	<g>
		<path style="fill:#D3D3D6;" d="M687,95.974c1.93,0,1.934-3,0-3C685.07,92.974,685.066,95.974,687,95.974L687,95.974z"/>
	</g>
</g>















</svg>
