<svg height="512" viewBox="0 0 58 58" width="512" xmlns="http://www.w3.org/2000/svg"><g id="038---Happy-Customer" fill="none"><path id="Shape" d="m45 46c1.2125666.0010665 2.305263.7319802 2.7691479 1.8523059.4638849 1.1203258.2077333 2.4097468-.6491479 3.2676941-.8535092.7498767-2.0004464 1.0733718-3.12.88 1.6568542 0 3 1.3431458 3 3s-1.3431458 3-3 3h-11c-5.6 0-8.26-1.47-9.35-2.35-.5465154-.4304491-1.2243947-.6599395-1.92-.65h-6.73v-17h5.22c1.1319841-.0008472 2.2108251-.480332 2.97-1.32l4.4-4.89c2.1136624-2.3503151 5.3106412-3.4109061 8.41-2.79v5h8.83c1.6154481-.0345822 2.9884525 1.173314 3.16 2.78.0611263.8312934-.2263603 1.6505429-.7935419 2.2613539-.5671817.6108111-1.3629205.958112-2.1964581.9586461h.83c1.2379981-.0583853 2.385384.6475263 2.8914053 1.7788929.5060214 1.1313666.2673679 2.457206-.6014053 3.3411071-.8535092.7498767-2.0004464 1.0733718-3.12.88z" fill="#fdd7ad"/><g fill="#f9c795"><path id="Shape" d="m37 35h-4c-.5522847 0-1-.4477153-1-1s.4477153-1 1-1h4c.5522847 0 1 .4477153 1 1s-.4477153 1-1 1z"/><path id="Shape" d="m46.82 54h-4.82c-.5522847 0-1-.4477153-1-1s.4477153-1 1-1h2c1.2713341-.0061167 2.40537.798164 2.82 2z"/><path id="Shape" d="m48.82 42h-5.82c-.5522847 0-1-.4477153-1-1s.4477153-1 1-1h2.83c1.313864-.0141355 2.5014752.7802534 2.99 2z"/><path id="Shape" d="m47.82 48h-4.82c-.5522847 0-1-.4477153-1-1s.4477153-1 1-1h2c1.2713341-.0061167 2.40537.798164 2.82 2z"/></g><path id="Rectangle-path" d="m36 21h6v13h-6z" fill="#a56a43"/><rect id="Rectangle-path" fill="#f29c1f" height="26" rx="2" width="38" x="20"/><path id="Shape" d="m1 36h12c1.1045695 0 2 .8954305 2 2v17c0 1.1045695-.8954305 2-2 2h-12c-.55228475 0-1-.4477153-1-1v-19c0-.5522847.44771525-1 1-1z" fill="#894b9d"/><path id="Shape" d="m3 36h8c1.1045695 0 2 .8954305 2 2v17c0 1.1045695-.8954305 2-2 2h-8c-.55228475 0-1-.4477153-1-1v-19c0-.5522847.44771525-1 1-1z" fill="#955ba5"/><circle id="Oval" cx="39" cy="13" fill="#f0c419" r="13"/><ellipse id="Oval" cx="39" cy="13" fill="#f3d55b" rx="11" ry="13"/><circle id="Oval" cx="35" cy="9" fill="#f29c1f" r="2"/><circle id="Oval" cx="43" cy="9" fill="#f29c1f" r="2"/><path id="Shape" d="m44.7 15c.0818694-.0000769.1602138.0333084.2168639.0924132.05665.0591049.0866838.1387942.0831361.2205868-.1649621 3.1934124-2.8023297 5.6980581-6 5.6980581s-5.8350379-2.5046457-6-5.6980581c-.0035477-.0817926.0264861-.1614819.0831361-.2205868.0566501-.0591048.1349945-.0924901.2168639-.0924132z" fill="#f29c1f"/></g></svg>